<?xml version="1.0" encoding="utf-8"?>
<!-- Generator: Adobe Illustrator 26.0.0, SVG Export Plug-In . SVG Version: 6.00 Build 0)  -->
<svg version="1.1" id="Layer_1" xmlns="http://www.w3.org/2000/svg" xmlns:xlink="http://www.w3.org/1999/xlink" x="0px" y="0px"
	 viewBox="0 0 332.7 182.3" style="enable-background:new 0 0 332.7 182.3;" xml:space="preserve">
<style type="text/css">
	.st0{fill:#FFFFFF;}
</style>
<path class="st0" d="M117.6,136.6H80.3V113l5.6,0V77.2l-5.6,0v-24H147v29.1h-26.3v-5.1h-8.3v7.4l18.1,0v23.1l-18.1,0v5.3h5.2V136.6z
	 M82.2,134.8h33.5v-19.9h-5.2v-9.1l18.1,0V86.5l-18.1,0V75.3h12.1v5.1h22.6V55.1h-63v20.3l5.6,0v39.5l-5.6,0V134.8z"/>
<path class="st0" d="M186.3,136.6H149V113h5.6V77.2H149v-24h37.3v24h-5.4V113h5.4V136.6z M150.9,134.8h33.5v-19.9H179V75.3h5.4V55.1
	h-33.6v20.2h5.6v39.5h-5.6V134.8z"/>
<path class="st0" d="M239.3,136.7h-30.2l-15.5-16.3V77.2h-5.4v-24h35.2v24H220V113h8.3l0-35.8l-3.8,0v-24l35.6,0v24h-5.5v43.2
	L239.3,136.7z M209.9,134.8h28.6l14.3-15.2V75.3h5.5V55.1l-31.9,0v20.2l3.8,0l0,39.6h-12.1V75.3h3.4V55.1h-31.5v20.2h5.4v44.3
	L209.9,134.8z"/>
<path class="st0" d="M83.9,73.6h5.7l0,0v43l0,0h-5.7v16.5H114v-16.5h-5.3l0,0V104l0,0h18.1V88.2h-18.1l0,0V73.6l0,0h15.8l0,0v5.1
	h18.8V56.8H83.9V73.6z"/>
<path class="st0" d="M182.8,56.8h-30.2v16.8h5.6l0,0v43l0,0h-5.4v16.5h30.1v-16.5h-5.4l0,0v-43l0,0h5.4V56.8z"/>
<path class="st0" d="M228.4,73.7l3.6,0l0,41.3l0,0l-1.6,1.6l0,0H218l0,0l-1.6-1.6l0,0V73.6l0,0h3.2V56.8h-27.8v16.8h5.4l0,0l0,45
	l13.8,14.4h26.4l13.8-14.4l0-45l0,0h5.4V56.8l-28.2,0.1V73.7z"/>
</svg>
