<?xml version="1.0" encoding="utf-8"?>
<!-- Generator: Adobe Illustrator 26.0.3, SVG Export Plug-In . SVG Version: 6.00 Build 0)  -->
<svg version="1.1" id="Layer_1" xmlns="http://www.w3.org/2000/svg" xmlns:xlink="http://www.w3.org/1999/xlink" x="0px" y="0px"
	 viewBox="0 0 1580.51 1636.55" style="enable-background:new 0 0 1580.51 1636.55;" xml:space="preserve">
<style type="text/css">
	.st0{opacity:0.3;fill:url(#SVGID_1_);}
	.st1{fill:url(#SVGID_00000008122449320554529760000016867870682873069961_);}
	.st2{fill:url(#SVGID_00000077323669859553445480000012526653734082024871_);}
	.st3{fill:url(#SVGID_00000000906322431891878260000015119745878533883837_);}
	.st4{fill:url(#SVGID_00000005971944776596978860000010373580909770061720_);}
	.st5{opacity:0.3;fill:url(#SVGID_00000013903568877253485290000009707547217815936919_);}
	.st6{fill:#FFFFFF;}
	.st7{clip-path:url(#SVGID_00000011009272830200333330000002913242274275723400_);fill:#FFFFFF;}
</style>
<g>
	<g>
		
			<radialGradient id="SVGID_1_" cx="883.6714" cy="562.9957" r="1304.9521" gradientTransform="matrix(1 1.025173e-03 -1.025173e-03 1 0.4874 -1.0241)" gradientUnits="userSpaceOnUse">
			<stop  offset="5.348560e-03" style="stop-color:#FB8075;stop-opacity:0.2"/>
			<stop  offset="0.9912" style="stop-color:#FB3C6E;stop-opacity:0.8"/>
		</radialGradient>
		<path class="st0" d="M172.53,174.86C49.5,270.94-11.28,432.9-7.32,588.94c2.17,85.23,22.74,171.73,70.9,242.09
			c48.16,70.36,126.23,122.68,211.33,127.99c103.2,6.43,213.61-52.9,305.39-5.29c57.01,29.58,88.17,93.58,101.02,156.51
			c12.85,62.93,11.28,128.05,22.98,191.2c18.38,99.28,70.44,192.02,145.62,259.42c81.68,73.22,219.28,110.52,295.62,31.74
			c62.66-64.66,49.46-169.19,28.32-256.72c-21.14-87.53-43.98-187.35,6.99-261.58c44.94-65.45,130.59-85.58,199.09-125.72
			c155.84-91.33,219.34-301.47,165.64-473.93c-53.7-172.46-206.75-302.94-378.62-358.51c-182.73-59.08-346.06-21.18-529.64-2.6
			C467.41,130.71,326.43,54.65,172.53,174.86z"/>
		
			<linearGradient id="SVGID_00000104690855808034750110000005590503203453588643_" gradientUnits="userSpaceOnUse" x1="-522.8201" y1="692.0792" x2="-853.5007" y2="1147.4426" gradientTransform="matrix(-0.8509 -0.5253 -0.5253 0.8509 873.2043 243.6392)">
			<stop  offset="8.273240e-03" style="stop-color:#FD4071"/>
			<stop  offset="0.6017" style="stop-color:#F36051"/>
			<stop  offset="0.9947" style="stop-color:#EE7040"/>
		</linearGradient>
		<path style="fill:url(#SVGID_00000104690855808034750110000005590503203453588643_);" d="M1256.37,1374.75
			c-88.72,89.72-200.14,135.75-302.29,146.81c-102.15,11.06-196.89-9.64-288.08-35.24c-46.85-13.15-96.75-31.14-113.63-81.72
			c-26.25-78.66,41.19-189.04,112.97-259.37c113-110.73,251.17-180.99,379.3-192.9c112.65-10.47,235.5,26.17,310.78,99.67
			C1430.58,1125.37,1339.75,1290.43,1256.37,1374.75z"/>
		
			<linearGradient id="SVGID_00000148654510629318509000000011026065492091027350_" gradientUnits="userSpaceOnUse" x1="-691.3666" y1="82.2864" x2="0.3386" y2="1729.5422" gradientTransform="matrix(-1 -1.025173e-03 -1.025173e-03 1 450.6631 -0.5626)">
			<stop  offset="0" style="stop-color:#FD4071"/>
			<stop  offset="1" style="stop-color:#FFB54E"/>
		</linearGradient>
		<path style="fill:url(#SVGID_00000148654510629318509000000011026065492091027350_);" d="M1414.53,501.6
			c167.32,170.95,232.61,422.99,79.93,602.05c-115.81,135.82-325.19,200.16-524.66,247.22c-169.78,40.05-342.15,73.36-516.23,99.75
			c-76.73,11.63-159.95,21.3-230.01-5.9c-93.17-36.18-131.64-127.21-126.31-208.66s44.25-158.96,64.71-238.91
			c33.07-129.28,17.42-262.7,19.91-394.55c2.49-131.85,26.53-270.08,126-376.33C605.38-91.49,1203.09,285.56,1414.53,501.6z"/>
		
			<linearGradient id="SVGID_00000115482979567199216980000010487000919727266746_" gradientUnits="userSpaceOnUse" x1="726.785" y1="386.3584" x2="1153.7565" y2="165.9858" gradientTransform="matrix(1 1.025173e-03 -1.025173e-03 1 0.4874 -1.0241)">
			<stop  offset="0" style="stop-color:#FD4071"/>
			<stop  offset="1" style="stop-color:#FFB54E"/>
		</linearGradient>
		<path style="fill:url(#SVGID_00000115482979567199216980000010487000919727266746_);" d="M943.34,310.06
			c26.45,25.16,64.66,41.97,103.82,40.87c50.66-1.43,97.1-34.25,112.6-76.24c28.2-76.41-56.17-186.21-155.91-168.39
			C898.75,125.09,879.04,248.91,943.34,310.06z"/>
		
			<linearGradient id="SVGID_00000015340627617944883040000011745647896015354791_" gradientUnits="userSpaceOnUse" x1="19.3702" y1="693.7028" x2="-346.8936" y2="1198.0659" gradientTransform="matrix(0.9665 -0.2568 0.2568 0.9665 -207.2391 81.3106)">
			<stop  offset="0" style="stop-color:#FD4071"/>
			<stop  offset="1" style="stop-color:#FFDC4E"/>
		</linearGradient>
		<path style="fill:url(#SVGID_00000015340627617944883040000011745647896015354791_);" d="M71.07,267.67
			c-3.45,32,2.77,72.29,33.22,82.71c30.43,10.41,59.56-17.13,80.02-41.95C232.19,250.36,460.6,50.72,315.86,5.59
			C182.11-36.11,82.05,165.87,71.07,267.67z"/>
		
			<radialGradient id="SVGID_00000124145916847983932890000016400818384271753625_" cx="883.6736" cy="562.9949" r="1304.9501" gradientTransform="matrix(1 1.025173e-03 -1.025173e-03 1 0.4874 -1.0241)" gradientUnits="userSpaceOnUse">
			<stop  offset="5.348560e-03" style="stop-color:#FB8075;stop-opacity:0.2"/>
			<stop  offset="0.9912" style="stop-color:#FB3C6E;stop-opacity:0.8"/>
		</radialGradient>
		<path style="opacity:0.3;fill:url(#SVGID_00000124145916847983932890000016400818384271753625_);" d="M1542.62,1062.9
			c20.41-139.57-189.7-60.21-121.66,35.16C1453.76,1144.02,1534.99,1115.12,1542.62,1062.9z"/>
	</g>
	<g>
		<g>
			<path class="st6" d="M704.34,752.23L587.83,774.6c-1.39,0.26-2.66,0.96-3.66,1.96l-88.99,90.81c-1.15,1.18-1.83,2.7-1.96,4.29
				c-0.06,0.69-0.01,1.36,0.14,2.05c0.51,2.29,2.12,4.17,4.31,5l112.29,42.87c-2.98,24.31,0.84,46.29,11.56,64.99l-40.06,41.37
				c-2.53,2.63-2.63,6.74-0.19,9.47l31.96,35.76c1.24,1.39,2.99,2.21,4.86,2.3c1.86,0.09,3.69-0.58,5.05-1.85l43.86-40.61
				c9.92,4.59,34.85,13.39,74.2,9.43l31.98,116.21c0.62,2.27,2.34,4.05,4.57,4.77c2.23,0.73,4.67,0.26,6.5-1.21l98.94-79.86
				c1.15-0.93,1.97-2.19,2.36-3.63l29.99-113.41c26.81-19.61,54.2-42.74,81.47-68.76c157-149.83,188.79-274.39,193.77-335.29
				c1.64-20.05,0.11-31.3,0.05-31.77c-0.39-2.79-2.43-5.06-5.16-5.77c-7.05-1.81-175.37-42.03-415.33,161.66
				C770.02,685.68,738.76,713.06,704.34,752.23z M827.48,772.85c3.16-38.6,37-67.32,75.59-64.17s67.32,37,64.17,75.59
				s-37,67.32-75.59,64.17S824.33,811.45,827.48,772.85z"/>
		</g>
		<g>
			<defs>
				
					<rect id="SVGID_00000045577127247109985130000017591243679189145791_" x="60.68" y="912.53" transform="matrix(8.592193e-03 -1 1 8.592193e-03 -815.3338 1575.2251)" width="652.12" height="572.54"/>
			</defs>
			<clipPath id="SVGID_00000173882959313259251020000004746213808570534802_">
				<use xlink:href="#SVGID_00000045577127247109985130000017591243679189145791_"  style="overflow:visible;"/>
			</clipPath>
			<path style="clip-path:url(#SVGID_00000173882959313259251020000004746213808570534802_);fill:#FFFFFF;" d="M574.28,1103.83
				l-114.1,112.15c-0.69,0.67-5.18-2.79-10.04-7.73l-8.76-8.91c-4.86-4.94-8.24-9.49-7.55-10.17l114.1-112.15
				c0.68-0.67,5.18,2.79,10.04,7.73l8.76,8.91C571.58,1098.61,574.96,1103.16,574.28,1103.83z"/>
			<path style="clip-path:url(#SVGID_00000173882959313259251020000004746213808570534802_);fill:#FFFFFF;" d="M609.52,1160.57
				l-142.95,140.51c-0.86,0.84-5.49-2.48-10.35-7.42l-8.76-8.91c-4.86-4.94-8.1-9.63-7.24-10.48l142.95-140.51
				c0.86-0.84,5.49,2.48,10.35,7.42l8.76,8.91C607.13,1155.04,610.38,1159.73,609.52,1160.57z"/>
			<path style="clip-path:url(#SVGID_00000173882959313259251020000004746213808570534802_);fill:#FFFFFF;" d="M514.71,1066.48
				l-142.95,140.51c-0.86,0.84-5.49-2.48-10.35-7.42l-8.76-8.91c-4.86-4.94-8.1-9.63-7.24-10.48l142.95-140.51
				c0.86-0.84,5.49,2.48,10.35,7.42l8.76,8.91C512.32,1060.94,515.56,1065.63,514.71,1066.48z"/>
		</g>
	</g>
</g>
</svg>
